<svg width="120" height="120" viewBox="0 0 25 24" fill="none" xmlns="http://www.w3.org/2000/svg">
<path d="M20.5892 5.54297C18.5192 3.48538 15.7307 2.31278 12.8123 2.27277C9.89396 2.23276 7.07429 3.32848 4.94871 5.32855C2.82314 7.32862 1.55804 10.0765 1.42058 12.9918C1.28311 15.9072 2.28404 18.7619 4.21199 20.9531L4.22043 20.9625C4.2359 20.9789 4.25043 20.9958 4.2673 21.0117C4.30199 21.0511 4.34137 21.0956 4.38777 21.142C4.56977 21.3355 4.78973 21.4893 5.03389 21.5938C5.27806 21.6983 5.54117 21.7513 5.80676 21.7494C6.07234 21.7476 6.33469 21.6909 6.57738 21.583C6.82006 21.4751 7.03786 21.3183 7.21715 21.1223C7.90699 20.3726 8.74486 19.7742 9.67781 19.3648C10.6108 18.9554 11.6185 18.7441 12.6373 18.7441C13.6561 18.7441 14.6638 18.9554 15.5968 19.3648C16.5297 19.7742 17.3676 20.3726 18.0575 21.1223C18.2381 21.3193 18.4576 21.4767 18.7022 21.5844C18.9468 21.6921 19.2111 21.7479 19.4783 21.7481C19.7456 21.7484 20.01 21.6932 20.2548 21.5859C20.4996 21.4787 20.7194 21.3218 20.9004 21.1252L21.0509 20.9611L21.0593 20.9517C22.959 18.8067 23.9682 16.0174 23.8811 13.1534C23.794 10.2895 22.6171 7.56674 20.5906 5.54109L20.5892 5.54297ZM11.8845 6C11.8845 5.80109 11.9635 5.61032 12.1042 5.46967C12.2448 5.32902 12.4356 5.25 12.6345 5.25C12.8334 5.25 13.0242 5.32902 13.1648 5.46967C13.3055 5.61032 13.3845 5.80109 13.3845 6V7.5C13.3845 7.69891 13.3055 7.88968 13.1648 8.03033C13.0242 8.17098 12.8334 8.25 12.6345 8.25C12.4356 8.25 12.2448 8.17098 12.1042 8.03033C11.9635 7.88968 11.8845 7.69891 11.8845 7.5V6ZM6.63449 14.25H5.13449C4.93558 14.25 4.74481 14.171 4.60416 14.0303C4.46351 13.8897 4.38449 13.6989 4.38449 13.5C4.38449 13.3011 4.46351 13.1103 4.60416 12.9697C4.74481 12.829 4.93558 12.75 5.13449 12.75H6.63449C6.8334 12.75 7.02417 12.829 7.16482 12.9697C7.30547 13.1103 7.38449 13.3011 7.38449 13.5C7.38449 13.6989 7.30547 13.8897 7.16482 14.0303C7.02417 14.171 6.8334 14.25 6.63449 14.25ZM8.92199 9.7875C8.78135 9.92805 8.59066 10.007 8.39184 10.007C8.19301 10.007 8.00232 9.92805 7.86168 9.7875L6.8009 8.72719C6.66023 8.58652 6.5812 8.39573 6.5812 8.1968C6.5812 7.99786 6.66023 7.80708 6.8009 7.66641C6.94157 7.52574 7.13235 7.44671 7.33129 7.44671C7.53022 7.44671 7.72101 7.52574 7.86168 7.66641L8.92199 8.72719C9.06254 8.86783 9.14149 9.05852 9.14149 9.25735C9.14149 9.45617 9.06254 9.64686 8.92199 9.7875ZM15.9204 10.8703L13.6939 14.4094C13.6028 14.5356 13.492 14.6464 13.3657 14.7375C13.061 14.9501 12.6846 15.034 12.3184 14.9708C11.9522 14.9077 11.6257 14.7027 11.4097 14.4003C11.1937 14.0979 11.1057 13.7225 11.1647 13.3557C11.2238 12.9888 11.4251 12.66 11.7251 12.4406L15.2642 10.2141C15.3446 10.158 15.4403 10.1279 15.5384 10.1279C15.6365 10.1279 15.7322 10.158 15.8126 10.2141C15.9137 10.287 15.9817 10.397 16.0019 10.5199C16.0221 10.6429 15.9928 10.7689 15.9204 10.8703ZM17.4073 9.7875C17.2655 9.92222 17.0767 9.99621 16.8811 9.99371C16.6856 9.9912 16.4987 9.9124 16.3604 9.7741C16.2221 9.6358 16.1433 9.44894 16.1408 9.25337C16.1383 9.0578 16.2123 8.86898 16.347 8.72719L17.4073 7.66641C17.548 7.52574 17.7388 7.44671 17.9377 7.44671C18.1366 7.44671 18.3274 7.52574 18.4681 7.66641C18.6088 7.80708 18.6878 7.99786 18.6878 8.1968C18.6878 8.39573 18.6088 8.58652 18.4681 8.72719L17.4073 9.7875ZM20.1345 14.25H18.6345C18.4356 14.25 18.2448 14.171 18.1042 14.0303C17.9635 13.8897 17.8845 13.6989 17.8845 13.5C17.8845 13.3011 17.9635 13.1103 18.1042 12.9697C18.2448 12.829 18.4356 12.75 18.6345 12.75H20.1345C20.3334 12.75 20.5242 12.829 20.6648 12.9697C20.8055 13.1103 20.8845 13.3011 20.8845 13.5C20.8845 13.6989 20.8055 13.8897 20.6648 14.0303C20.5242 14.171 20.3334 14.25 20.1345 14.25Z" fill="#D0D0D0"/>
</svg>
