<svg width="140" height="116" viewBox="0 0 420 346" fill="none" xmlns="http://www.w3.org/2000/svg">
<path d="M104.819 293.001C106.419 293.019 122.637 318.342 122.637 328.183C122.637 332.909 120.76 337.441 117.418 340.782C114.077 344.124 109.545 346.001 104.819 346.001C100.093 346.001 95.5613 344.124 92.2197 340.782C88.8782 337.441 87.001 332.909 87.001 328.183C87.001 318.343 103.22 292.983 104.819 293.001Z" fill="#42A0F0"/>
<path d="M91.2342 334.842C93.0146 335.387 95.2774 333.148 96.2882 329.841C97.299 326.535 96.6751 323.414 94.8947 322.869C93.1143 322.325 90.8516 324.564 89.8408 327.87C88.83 331.176 89.4538 334.298 91.2342 334.842Z" fill="white"/>
<path d="M197.819 293.001C199.419 293.019 215.637 318.342 215.637 328.183C215.637 332.909 213.76 337.441 210.418 340.782C207.077 344.124 202.545 346.001 197.819 346.001C193.093 346.001 188.561 344.124 185.22 340.782C181.878 337.441 180.001 332.909 180.001 328.183C180.001 318.343 196.22 292.983 197.819 293.001Z" fill="#42A0F0"/>
<path d="M184.234 334.842C186.015 335.387 188.277 333.148 189.288 329.841C190.299 326.535 189.675 323.414 187.895 322.869C186.114 322.325 183.852 324.564 182.841 327.87C181.83 331.176 182.454 334.298 184.234 334.842Z" fill="white"/>
<path d="M290.819 293.001C292.419 293.019 308.637 318.342 308.637 328.183C308.637 332.909 306.76 337.441 303.418 340.782C300.077 344.124 295.545 346.001 290.819 346.001C286.093 346.001 281.561 344.124 278.22 340.782C274.878 337.441 273.001 332.909 273.001 328.183C273.001 318.343 289.22 292.983 290.819 293.001Z" fill="#42A0F0"/>
<path d="M277.234 334.842C279.015 335.387 281.277 333.148 282.288 329.841C283.299 326.535 282.675 323.414 280.895 322.869C279.114 322.325 276.852 324.564 275.841 327.87C274.83 331.176 275.454 334.298 277.234 334.842Z" fill="white"/>
<path d="M151.819 215.001C153.419 215.019 169.637 240.342 169.637 250.183C169.637 254.909 167.76 259.441 164.418 262.782C161.077 266.124 156.545 268.001 151.819 268.001C147.093 268.001 142.561 266.124 139.22 262.782C135.878 259.441 134.001 254.909 134.001 250.183C134.001 240.343 150.22 214.983 151.819 215.001Z" fill="#42A0F0"/>
<path d="M138.234 256.842C140.015 257.387 142.277 255.148 143.288 251.841C144.299 248.535 143.675 245.414 141.895 244.869C140.114 244.325 137.852 246.564 136.841 249.87C135.83 253.176 136.454 256.298 138.234 256.842Z" fill="white"/>
<path d="M249.819 215.001C251.419 215.019 267.637 240.342 267.637 250.183C267.637 254.909 265.76 259.441 262.418 262.782C259.077 266.124 254.545 268.001 249.819 268.001C245.093 268.001 240.561 266.124 237.22 262.782C233.878 259.441 232.001 254.909 232.001 250.183C232.001 240.343 248.22 214.983 249.819 215.001Z" fill="#42A0F0"/>
<path d="M236.234 256.842C238.015 257.387 240.277 255.148 241.288 251.841C242.299 248.535 241.675 245.414 239.895 244.869C238.114 244.325 235.852 246.564 234.841 249.87C233.83 253.176 234.454 256.298 236.234 256.842Z" fill="white"/>
<path d="M103.268 6.72311C110.278 6.72135 117.27 7.42963 124.137 8.83711C137.391 11.5668 149.974 16.8888 161.164 24.4971C176.667 35.0048 189.053 49.4945 197.021 66.4436C204.989 83.3926 208.244 102.175 206.444 120.817C204.645 139.458 197.857 157.271 186.793 172.383C175.73 187.495 160.801 199.347 143.574 206.695C137.312 209.356 130.8 211.388 124.136 212.76C109.685 215.69 94.7755 215.508 80.4007 212.224C66.0258 208.941 52.5156 202.632 40.7701 193.718C29.0246 184.804 19.3133 173.489 12.2833 160.528C5.25331 147.566 1.06591 133.256 4.57764e-05 118.549C11.3315 121.201 23.1025 121.372 34.506 119.049C44.7391 116.953 54.4593 112.863 63.112 107.012C75.9744 98.3288 86.0423 86.1017 92.0961 71.8121C94.1416 66.9726 95.7028 61.9424 96.7571 56.7951C99.0041 45.7664 98.921 34.3898 96.5131 23.3951C95.3017 17.8974 93.5104 12.5437 91.1691 7.42412C95.1851 6.95677 99.2249 6.7227 103.268 6.72311V6.72311Z" fill="#713FFD"/>
<g filter="url(#filter0_f_7_11934)">
<path d="M173.339 38.8964C150.095 17.9669 119.644 13.8916 105.325 29.7941C91.0065 45.6965 98.2424 75.5547 121.487 96.4842C144.732 117.414 175.182 121.489 189.501 105.586C203.82 89.6841 196.584 59.8259 173.339 38.8964Z" fill="#A586FC"/>
</g>
<g filter="url(#filter1_d_7_11934)">
<path d="M289.999 282.002H98.5671C79.9967 281.988 62.1516 274.791 48.7677 261.917C35.3838 249.044 27.4988 231.492 26.7633 212.936C26.0278 194.38 32.4988 176.259 44.8217 162.366C57.1447 148.473 74.3641 139.886 92.8751 138.402C95.5149 119.762 103.932 102.419 116.943 88.8123C129.953 75.2056 146.902 66.0204 165.406 62.5488C183.909 59.0772 203.035 61.4939 220.093 69.4591C237.151 77.4243 251.282 90.537 260.499 106.952C277.404 101.1 295.669 100.417 312.965 104.988C330.26 109.56 345.802 119.18 357.607 132.621C369.413 146.062 376.947 162.715 379.249 180.456C381.55 198.196 378.516 216.221 370.531 232.229C365.846 246.693 356.699 259.3 344.403 268.242C332.107 277.184 317.295 282.002 302.091 282.002H289.999Z" fill="url(#paint0_linear_7_11934)"/>
<path d="M302.091 281.002C309.81 281.002 317.4 279.769 324.65 277.338C331.66 274.988 338.242 271.557 344.211 267.142C350.112 262.778 355.285 257.551 359.586 251.605C363.941 245.585 367.303 238.962 369.579 231.922L369.603 231.849L369.637 231.782C372.664 225.734 374.995 219.336 376.565 212.766C378.18 206.005 378.999 199.019 378.999 192.002C378.999 185.963 378.391 179.928 377.191 174.064C376.022 168.351 374.277 162.73 372.006 157.36C369.775 152.086 367.014 147 363.8 142.242C360.616 137.529 356.96 133.097 352.932 129.07C348.904 125.042 344.472 121.385 339.759 118.201C335.001 114.987 329.915 112.226 324.642 109.996C319.271 107.724 313.651 105.979 307.937 104.81C302.074 103.61 296.039 103.002 289.999 103.002C280 103.002 270.185 104.648 260.826 107.893L260.037 108.167L259.627 107.439C252.011 93.8967 240.933 82.5241 227.591 74.5503C220.843 70.5177 213.594 67.4014 206.045 65.2881C198.256 63.1079 190.166 62.0024 181.999 62.0024C171.015 62.0024 160.292 63.9794 150.129 67.8785C140.311 71.6451 131.304 77.0862 123.359 84.0504C115.46 90.9747 108.905 99.1446 103.875 108.333C98.7226 117.748 95.3546 127.91 93.8653 138.537L93.7539 139.333L92.9531 139.396C83.9948 140.097 75.376 142.455 67.3358 146.406C59.5234 150.244 52.5472 155.436 46.6011 161.837C34.3829 174.989 27.6541 192.126 27.6541 210.089C27.6541 219.663 29.5288 228.949 33.2263 237.691C35.0035 241.893 37.2032 245.946 39.7643 249.736C42.3012 253.492 45.2148 257.023 48.424 260.232C51.6331 263.441 55.1644 266.355 58.9196 268.892C62.7105 271.453 66.7631 273.653 70.9647 275.43C79.7065 279.127 88.9932 281.002 98.5667 281.002H289.999H302.091ZM302.091 282.002H289.999H98.5667C58.8506 282.002 26.6541 249.805 26.6541 210.089C26.6541 172.288 55.8187 141.299 92.875 138.399C99.0045 94.6598 136.571 61.0024 181.999 61.0024C215.702 61.0024 245.076 79.5256 260.499 106.948C269.741 103.743 279.666 102.002 289.999 102.002C339.705 102.002 379.999 142.297 379.999 192.002C379.999 206.461 376.59 220.123 370.531 232.229C361.194 261.111 334.081 282.002 302.091 282.002Z" fill="white" fill-opacity="0.5"/>
</g>
<defs>
<filter id="filter0_f_7_11934" x="77.9738" y="0.0932617" width="138.879" height="135.194" filterUnits="userSpaceOnUse" color-interpolation-filters="sRGB">
<feFlood flood-opacity="0" result="BackgroundImageFix"/>
<feBlend mode="normal" in="SourceGraphic" in2="BackgroundImageFix" result="shape"/>
<feGaussianBlur stdDeviation="10" result="effect1_foregroundBlur_7_11934"/>
</filter>
<filter id="filter1_d_7_11934" x="6.65405" y="33.0024" width="413.345" height="281" filterUnits="userSpaceOnUse" color-interpolation-filters="sRGB">
<feFlood flood-opacity="0" result="BackgroundImageFix"/>
<feColorMatrix in="SourceAlpha" type="matrix" values="0 0 0 0 0 0 0 0 0 0 0 0 0 0 0 0 0 0 127 0" result="hardAlpha"/>
<feOffset dx="10" dy="2"/>
<feGaussianBlur stdDeviation="15"/>
<feColorMatrix type="matrix" values="0 0 0 0 0.258824 0 0 0 0 0.627451 0 0 0 0 0.941176 0 0 0 0.596 0"/>
<feBlend mode="normal" in2="BackgroundImageFix" result="effect1_dropShadow_7_11934"/>
<feBlend mode="normal" in="SourceGraphic" in2="effect1_dropShadow_7_11934" result="shape"/>
</filter>
<linearGradient id="paint0_linear_7_11934" x1="203.352" y1="61.0049" x2="305.995" y2="309.169" gradientUnits="userSpaceOnUse">
<stop stop-color="white" stop-opacity="0.604"/>
<stop offset="1" stop-color="white" stop-opacity="0.2"/>
</linearGradient>
</defs>
</svg>
