<svg width="120" height="120" viewBox="0 0 289 207" fill="none" xmlns="http://www.w3.org/2000/svg">
<path d="M147.908 60.9314C147.908 60.9314 138.144 74.1674 130.513 73.7314C120.947 73.1694 119.313 61.6314 110.445 60.9314C101.167 61.0704 100.22 73.0314 90.164 73.7314C81.154 73.5704 77.337 61.1494 68.748 60.9314C60.159 60.7134 51.004 73.7314 51.004 73.7314" stroke="white" stroke-width="16" stroke-linecap="round"/>
<path d="M153.919 134.931C153.919 134.931 139.219 148.167 127.726 147.731C113.326 147.169 110.855 135.631 97.508 134.931C83.538 135.07 82.108 147.031 66.969 147.731C53.403 147.568 47.655 135.148 34.719 134.931C21.783 134.714 8 147.731 8 147.731" stroke="white" stroke-width="16" stroke-linecap="round"/>
<path d="M237.919 185.931C237.919 185.931 223.219 199.167 211.726 198.731C197.326 198.169 194.855 186.631 181.508 185.931C167.538 186.07 166.108 198.031 150.969 198.731C137.403 198.568 131.655 186.148 118.719 185.931C105.783 185.714 92 198.731 92 198.731" stroke="white" stroke-width="16" stroke-linecap="round"/>
<path d="M228.185 140.929C261.759 140.929 288.977 113.573 288.977 79.8283C288.977 46.0831 261.759 18.7273 228.185 18.7273C194.61 18.7273 167.393 46.0831 167.393 79.8283C167.393 113.573 194.61 140.929 228.185 140.929Z" fill="#FA9E42"/>
<g filter="url(#filter0_f_7_10929)">
<path d="M223.791 71.1396C243.995 60.4083 255.296 42.1482 249.032 30.3545C242.767 18.5607 221.311 17.6994 201.107 28.4307C180.903 39.1619 169.602 57.4221 175.866 69.2158C182.13 81.0096 203.587 81.8709 223.791 71.1396Z" fill="#F8E36F"/>
</g>
<defs>
<filter id="filter0_f_7_10929" x="154.138" y="0.91333" width="116.622" height="97.7434" filterUnits="userSpaceOnUse" color-interpolation-filters="sRGB">
<feFlood flood-opacity="0" result="BackgroundImageFix"/>
<feBlend mode="normal" in="SourceGraphic" in2="BackgroundImageFix" result="shape"/>
<feGaussianBlur stdDeviation="10" result="effect1_foregroundBlur_7_10929"/>
</filter>
</defs>
</svg>
