<svg width="120" height="120" viewBox="0 0 476 327" fill="none" xmlns="http://www.w3.org/2000/svg">
<g filter="url(#filter0_d_151_3)">
<path d="M283.345 249H91.9129C73.3425 248.986 55.4975 241.789 42.1136 228.915C28.7297 216.041 20.8446 198.489 20.1091 179.933C19.3736 161.377 25.8446 143.256 38.1676 129.364C50.4905 115.471 67.7099 106.884 86.2209 105.4C88.8607 86.7599 97.278 69.4166 110.289 55.8099C123.299 42.2032 140.248 33.0179 158.751 29.5463C177.255 26.0747 196.381 28.4915 213.438 36.4567C230.496 44.4218 244.628 57.5345 253.845 73.9499C270.75 68.0981 289.014 67.4142 306.31 71.9856C323.605 76.557 339.146 86.1764 350.952 99.6169C362.757 113.057 370.291 129.71 372.594 147.45C374.896 165.19 371.862 183.214 363.879 199.223C359.194 213.688 350.047 226.296 337.751 235.239C325.455 244.182 310.641 249 295.437 249H283.345Z" fill="url(#paint0_linear_151_3)"/>
<path d="M295.437 248C303.157 248 310.748 246.767 317.998 244.336C325.009 241.985 331.59 238.554 337.56 234.139C343.462 229.775 348.635 224.547 352.936 218.6C357.29 212.58 360.652 205.957 362.928 198.915L362.951 198.843L362.985 198.775C366.011 192.728 368.341 186.33 369.911 179.761C371.526 173 372.345 166.015 372.345 158.999C372.345 152.96 371.737 146.925 370.537 141.062C369.368 135.348 367.623 129.728 365.352 124.357C363.121 119.084 360.361 113.997 357.146 109.24C353.962 104.527 350.306 100.095 346.278 96.0672C342.25 92.0395 337.819 88.3828 333.106 85.1988C328.348 81.9845 323.261 79.2237 317.988 76.9932C312.617 74.7216 306.997 72.9769 301.283 71.8077C295.42 70.6079 289.385 69.9995 283.345 69.9995C273.346 69.9995 263.531 71.6452 254.172 74.8908L253.383 75.1646L252.973 74.4362C245.357 60.8943 234.279 49.5217 220.937 41.5479C214.189 37.5153 206.94 34.399 199.391 32.2857C191.602 30.1055 183.512 29 175.345 29C164.361 29 153.638 30.977 143.475 34.876C133.657 38.6427 124.65 44.0837 116.705 51.048C108.806 57.9722 102.251 66.1422 97.2213 75.3308C92.0685 84.7451 88.7006 94.9073 87.2113 105.535L87.0998 106.33L86.299 106.393C77.3408 107.094 68.7219 109.453 60.6818 113.403C52.8694 117.242 45.8932 122.434 39.947 128.834C27.7289 141.987 21 159.123 21 177.087C21 186.66 22.8748 195.947 26.5723 204.689C28.3495 208.891 30.5491 212.943 33.1102 216.734C35.6472 220.489 38.5607 224.02 41.7699 227.23C44.9791 230.439 48.5104 233.352 52.2655 235.889C56.0565 238.45 60.109 240.65 64.3106 242.427C73.0525 246.125 82.3391 248 91.9127 248H283.345H295.437ZM295.437 249H283.345H91.9127C52.1966 249 20 216.803 20 177.087C20 139.286 49.1646 108.297 86.221 105.396C92.3504 61.6574 129.917 28 175.345 28C209.048 28 238.422 46.5232 253.845 73.946C263.087 70.7407 273.012 68.9995 283.345 68.9995C333.051 68.9995 373.345 109.294 373.345 158.999C373.345 173.456 369.936 187.118 363.879 199.223C354.544 228.108 327.431 249 295.437 249Z" fill="white" fill-opacity="0.5"/>
</g>
<g filter="url(#filter1_d_151_3)">
<path d="M345.345 295H153.913C135.343 294.986 117.497 287.789 104.114 274.915C90.7297 262.041 82.8446 244.489 82.1091 225.933C81.3736 207.377 87.8446 189.256 100.168 175.364C112.49 161.471 129.71 152.884 148.221 151.4C150.861 132.76 159.278 115.417 172.289 101.81C185.299 88.2032 202.248 79.0179 220.751 75.5463C239.255 72.0747 258.381 74.4915 275.438 82.4567C292.496 90.4218 306.628 103.535 315.845 119.95C332.75 114.098 351.014 113.414 368.31 117.986C385.605 122.557 401.146 132.176 412.952 145.617C424.757 159.057 432.291 175.71 434.594 193.45C436.896 211.19 433.862 229.214 425.879 245.223C421.194 259.688 412.047 272.296 399.751 281.239C387.455 290.182 372.641 295 357.437 295H345.345Z" fill="url(#paint1_linear_151_3)"/>
<path d="M357.437 294C365.157 294 372.748 292.767 379.998 290.336C387.009 287.985 393.59 284.554 399.56 280.139C405.462 275.775 410.635 270.547 414.936 264.6C419.29 258.58 422.652 251.957 424.928 244.915L424.951 244.843L424.985 244.775C428.011 238.728 430.341 232.33 431.911 225.761C433.526 219 434.345 212.015 434.345 204.999C434.345 198.96 433.737 192.925 432.537 187.062C431.368 181.348 429.623 175.728 427.352 170.357C425.121 165.084 422.361 159.997 419.146 155.24C415.962 150.527 412.306 146.095 408.278 142.067C404.25 138.039 399.819 134.383 395.106 131.199C390.348 127.984 385.261 125.224 379.988 122.993C374.617 120.722 368.997 118.977 363.283 117.808C357.42 116.608 351.385 116 345.345 116C335.346 116 325.531 117.645 316.172 120.891L315.383 121.165L314.973 120.436C307.357 106.894 296.279 95.5217 282.937 87.5479C276.189 83.5153 268.94 80.399 261.391 78.2857C253.602 76.1055 245.512 75 237.345 75C226.361 75 215.638 76.977 205.475 80.876C195.657 84.6427 186.65 90.0837 178.705 97.048C170.806 103.972 164.251 112.142 159.221 121.331C154.069 130.745 150.701 140.907 149.211 151.535L149.1 152.33L148.299 152.393C139.341 153.094 130.722 155.453 122.682 159.403C114.869 163.242 107.893 168.434 101.947 174.834C89.7289 187.987 83 205.123 83 223.087C83 232.66 84.8748 241.947 88.5723 250.689C90.3495 254.891 92.5491 258.943 95.1102 262.734C97.6472 266.489 100.561 270.02 103.77 273.23C106.979 276.439 110.51 279.352 114.266 281.889C118.056 284.45 122.109 286.65 126.311 288.427C135.052 292.125 144.339 294 153.913 294H345.345H357.437ZM357.437 295H345.345H153.913C114.197 295 82 262.803 82 223.087C82 185.286 111.165 154.297 148.221 151.396C154.35 107.657 191.917 74 237.345 74C271.048 74 300.422 92.5232 315.845 119.946C325.087 116.741 335.012 115 345.345 115C395.051 115 435.345 155.294 435.345 204.999C435.345 219.456 431.936 233.118 425.879 245.223C416.544 274.108 389.431 295 357.437 295Z" fill="white" fill-opacity="0.5"/>
</g>
<defs>
<filter id="filter0_d_151_3" x="0" y="0" width="413.345" height="281" filterUnits="userSpaceOnUse" color-interpolation-filters="sRGB">
<feFlood flood-opacity="0" result="BackgroundImageFix"/>
<feColorMatrix in="SourceAlpha" type="matrix" values="0 0 0 0 0 0 0 0 0 0 0 0 0 0 0 0 0 0 127 0" result="hardAlpha"/>
<feOffset dx="10" dy="2"/>
<feGaussianBlur stdDeviation="15"/>
<feColorMatrix type="matrix" values="0 0 0 0 0.258824 0 0 0 0 0.627451 0 0 0 0 0.941176 0 0 0 0.596 0"/>
<feBlend mode="normal" in2="BackgroundImageFix" result="effect1_dropShadow_151_3"/>
<feBlend mode="normal" in="SourceGraphic" in2="effect1_dropShadow_151_3" result="shape"/>
</filter>
<filter id="filter1_d_151_3" x="62" y="46" width="413.345" height="281" filterUnits="userSpaceOnUse" color-interpolation-filters="sRGB">
<feFlood flood-opacity="0" result="BackgroundImageFix"/>
<feColorMatrix in="SourceAlpha" type="matrix" values="0 0 0 0 0 0 0 0 0 0 0 0 0 0 0 0 0 0 127 0" result="hardAlpha"/>
<feOffset dx="10" dy="2"/>
<feGaussianBlur stdDeviation="15"/>
<feColorMatrix type="matrix" values="0 0 0 0 0.258824 0 0 0 0 0.627451 0 0 0 0 0.941176 0 0 0 0.596 0"/>
<feBlend mode="normal" in2="BackgroundImageFix" result="effect1_dropShadow_151_3"/>
<feBlend mode="normal" in="SourceGraphic" in2="effect1_dropShadow_151_3" result="shape"/>
</filter>
<linearGradient id="paint0_linear_151_3" x1="196.698" y1="28.0024" x2="299.34" y2="276.166" gradientUnits="userSpaceOnUse">
<stop stop-color="white" stop-opacity="0.604"/>
<stop offset="1" stop-color="white" stop-opacity="0.2"/>
</linearGradient>
<linearGradient id="paint1_linear_151_3" x1="258.698" y1="74.0024" x2="361.34" y2="322.166" gradientUnits="userSpaceOnUse">
<stop stop-color="white" stop-opacity="0.604"/>
<stop offset="1" stop-color="white" stop-opacity="0.2"/>
</linearGradient>
</defs>
</svg>
