<svg width="120" height="120" viewBox="0 0 433 364" fill="none" xmlns="http://www.w3.org/2000/svg">
<path d="M146.044 221.773L212.727 328.466" stroke="#42A0F0" stroke-width="9" stroke-linecap="round"/>
<path d="M162.132 247.988L168.652 217.535" stroke="#42A0F0" stroke-width="9" stroke-linecap="round"/>
<path d="M162.132 247.988L131.309 240.875" stroke="#42A0F0" stroke-width="9" stroke-linecap="round"/>
<path d="M197.696 304.89L227.927 312.374" stroke="#42A0F0" stroke-width="9" stroke-linecap="round"/>
<path d="M197.696 304.89L190.583 335.713" stroke="#42A0F0" stroke-width="9" stroke-linecap="round"/>
<path d="M208.936 220.172L149.879 331.268" stroke="#42A0F0" stroke-width="9" stroke-linecap="round"/>
<path d="M194.278 247.212L223.911 237.633" stroke="#42A0F0" stroke-width="9" stroke-linecap="round"/>
<path d="M194.278 247.212L185.026 216.962" stroke="#42A0F0" stroke-width="9" stroke-linecap="round"/>
<path d="M162.781 306.463L171.415 336.385" stroke="#42A0F0" stroke-width="9" stroke-linecap="round"/>
<path d="M162.781 306.463L132.531 315.714" stroke="#42A0F0" stroke-width="9" stroke-linecap="round"/>
<path d="M241.768 273.837L116.028 278.24" stroke="#42A0F0" stroke-width="9" stroke-linecap="round"/>
<path d="M211.022 274.663L234.135 295.536" stroke="#42A0F0" stroke-width="9" stroke-linecap="round"/>
<path d="M211.022 274.663L232.594 251.526" stroke="#42A0F0" stroke-width="9" stroke-linecap="round"/>
<path d="M143.961 277.011L122.365 299.45" stroke="#42A0F0" stroke-width="9" stroke-linecap="round"/>
<path d="M143.961 277.011L120.824 255.439" stroke="#42A0F0" stroke-width="9" stroke-linecap="round"/>
<path d="M312.38 289.187L287.007 346.166" stroke="#42A0F0" stroke-width="6.00313" stroke-linecap="round"/>
<path d="M306.063 303.064L320.387 297.304" stroke="#42A0F0" stroke-width="6.00313" stroke-linecap="round"/>
<path d="M306.063 303.064L300.444 288.424" stroke="#42A0F0" stroke-width="6.00313" stroke-linecap="round"/>
<path d="M292.531 333.453L297.833 347.953" stroke="#42A0F0" stroke-width="6.00313" stroke-linecap="round"/>
<path d="M292.531 333.453L277.891 339.072" stroke="#42A0F0" stroke-width="6.00313" stroke-linecap="round"/>
<path d="M330.468 314.594L268.437 321.11" stroke="#42A0F0" stroke-width="6.00313" stroke-linecap="round"/>
<path d="M315.291 316.063L327.442 325.587" stroke="#42A0F0" stroke-width="6.00313" stroke-linecap="round"/>
<path d="M315.291 316.063L325.161 303.876" stroke="#42A0F0" stroke-width="6.00313" stroke-linecap="round"/>
<path d="M282.208 319.538L272.302 331.379" stroke="#42A0F0" stroke-width="6.00313" stroke-linecap="round"/>
<path d="M282.208 319.538L270.021 309.668" stroke="#42A0F0" stroke-width="6.00313" stroke-linecap="round"/>
<path d="M317.509 342.962L280.85 292.499" stroke="#42A0F0" stroke-width="6.00313" stroke-linecap="round"/>
<path d="M308.649 330.553L306.476 345.837" stroke="#42A0F0" stroke-width="6.00313" stroke-linecap="round"/>
<path d="M308.649 330.553L324.138 333.007" stroke="#42A0F0" stroke-width="6.00313" stroke-linecap="round"/>
<path d="M289.098 303.639L273.89 300.981" stroke="#42A0F0" stroke-width="6.00313" stroke-linecap="round"/>
<path d="M289.098 303.639L291.552 288.151" stroke="#42A0F0" stroke-width="6.00313" stroke-linecap="round"/>
<path d="M103.268 6.72311C110.278 6.72136 117.27 7.42963 124.137 8.83711C137.39 11.5668 149.974 16.8888 161.164 24.4971C176.667 35.0048 189.053 49.4945 197.021 66.4436C204.989 83.3926 208.244 102.175 206.444 120.817C204.645 139.458 197.856 157.271 186.793 172.383C175.73 187.495 160.801 199.347 143.574 206.695C137.312 209.356 130.8 211.388 124.136 212.76C109.685 215.69 94.7755 215.508 80.4006 212.224C66.0257 208.941 52.5156 202.632 40.77 193.718C29.0245 184.804 19.3133 173.489 12.2833 160.528C5.25327 147.566 1.06586 133.256 0 118.549C11.3315 121.201 23.1024 121.372 34.506 119.049C44.739 116.953 54.4592 112.863 63.112 107.012C75.9743 98.3288 86.0423 86.1017 92.096 71.8121C94.1415 66.9726 95.7028 61.9424 96.757 56.7951C99.0041 45.7664 98.921 34.3898 96.513 23.3951C95.3017 17.8974 93.5103 12.5437 91.169 7.42412C95.1851 6.95677 99.2248 6.7227 103.268 6.72311Z" fill="#713FFD"/>
<g filter="url(#filter0_f_7_11723)">
<path d="M173.339 38.8964C150.095 17.9669 119.644 13.8916 105.325 29.7941C91.0065 45.6965 98.2424 75.5547 121.487 96.4842C144.732 117.414 175.183 121.489 189.501 105.586C203.82 89.6841 196.584 59.8259 173.339 38.8964Z" fill="#A586FC"/>
</g>
<g filter="url(#filter1_d_7_11723)">
<path d="M302.345 282.002H110.913C92.3426 281.988 74.4975 274.791 61.1136 261.917C47.7297 249.044 39.8447 231.492 39.1092 212.936C38.3737 194.38 44.8447 176.259 57.1676 162.366C69.4906 148.473 86.71 139.886 105.221 138.402C107.861 119.762 116.278 102.419 129.289 88.8123C142.299 75.2056 159.248 66.0204 177.752 62.5488C196.255 59.0772 215.381 61.4939 232.439 69.4591C249.497 77.4243 263.628 90.537 272.845 106.952C289.75 101.101 308.015 100.417 325.31 104.988C342.605 109.559 358.146 119.179 369.952 132.619C381.757 146.06 389.292 162.712 391.594 180.452C393.896 198.193 390.862 216.217 382.879 232.225C378.194 246.69 369.047 259.299 356.751 268.242C344.455 277.185 329.641 282.002 314.437 282.002H302.345Z" fill="url(#paint0_linear_7_11723)"/>
<path d="M314.437 281.002C322.157 281.002 329.748 279.769 336.998 277.338C344.009 274.987 350.59 271.557 356.56 267.142C362.462 262.777 367.635 257.549 371.936 251.603C376.29 245.582 379.652 238.959 381.928 231.918L381.951 231.845L381.985 231.778C385.011 225.73 387.341 219.333 388.911 212.763C390.526 206.003 391.345 199.017 391.345 192.002C391.345 185.963 390.737 179.928 389.537 174.064C388.368 168.351 386.623 162.73 384.352 157.36C382.121 152.086 379.361 147 376.146 142.242C372.962 137.529 369.306 133.097 365.278 129.07C361.25 125.042 356.819 121.385 352.106 118.201C347.348 114.987 342.261 112.226 336.988 109.996C331.617 107.724 325.997 105.979 320.283 104.81C314.42 103.61 308.385 103.002 302.345 103.002C292.346 103.002 282.531 104.648 273.172 107.893L272.383 108.167L271.973 107.439C264.357 93.8968 253.279 82.5241 239.937 74.5503C233.189 70.5177 225.94 67.4015 218.391 65.2882C210.602 63.1079 202.512 62.0024 194.345 62.0024C183.361 62.0024 172.638 63.9794 162.475 67.8785C152.657 71.6451 143.65 77.0862 135.705 84.0504C127.806 90.9747 121.251 99.1446 116.221 108.333C111.069 117.748 107.701 127.91 106.211 138.537L106.1 139.333L105.299 139.396C96.3408 140.097 87.7219 142.455 79.6818 146.406C71.8694 150.244 64.8932 155.436 58.947 161.837C46.7289 174.989 40 192.126 40 210.089C40 219.663 41.8748 228.949 45.5723 237.691C47.3495 241.893 49.5492 245.946 52.1102 249.736C54.6472 253.492 57.5607 257.023 60.7699 260.232C63.9791 263.441 67.5104 266.355 71.2655 268.892C75.0565 271.453 79.109 273.653 83.3107 275.43C92.0525 279.127 101.339 281.002 110.913 281.002H302.345H314.437ZM314.437 282.002H302.345H110.913C71.1966 282.002 39 249.805 39 210.089C39 172.288 68.1647 141.299 105.221 138.399C111.35 94.6598 148.917 61.0024 194.345 61.0024C228.048 61.0024 257.422 79.5257 272.845 106.948C282.087 103.743 292.012 102.002 302.345 102.002C352.051 102.002 392.345 142.297 392.345 192.002C392.345 206.458 388.936 220.121 382.879 232.225C373.544 261.111 346.431 282.002 314.437 282.002Z" fill="white" fill-opacity="0.5"/>
</g>
<defs>
<filter id="filter0_f_7_11723" x="77.9738" y="0.0932617" width="138.879" height="135.194" filterUnits="userSpaceOnUse" color-interpolation-filters="sRGB">
<feFlood flood-opacity="0" result="BackgroundImageFix"/>
<feBlend mode="normal" in="SourceGraphic" in2="BackgroundImageFix" result="shape"/>
<feGaussianBlur stdDeviation="10" result="effect1_foregroundBlur_7_11723"/>
</filter>
<filter id="filter1_d_7_11723" x="19" y="33.0024" width="413.345" height="281" filterUnits="userSpaceOnUse" color-interpolation-filters="sRGB">
<feFlood flood-opacity="0" result="BackgroundImageFix"/>
<feColorMatrix in="SourceAlpha" type="matrix" values="0 0 0 0 0 0 0 0 0 0 0 0 0 0 0 0 0 0 127 0" result="hardAlpha"/>
<feOffset dx="10" dy="2"/>
<feGaussianBlur stdDeviation="15"/>
<feColorMatrix type="matrix" values="0 0 0 0 0.258824 0 0 0 0 0.627451 0 0 0 0 0.941176 0 0 0 0.596 0"/>
<feBlend mode="normal" in2="BackgroundImageFix" result="effect1_dropShadow_7_11723"/>
<feBlend mode="normal" in="SourceGraphic" in2="effect1_dropShadow_7_11723" result="shape"/>
</filter>
<linearGradient id="paint0_linear_7_11723" x1="215.698" y1="61.0049" x2="318.341" y2="309.169" gradientUnits="userSpaceOnUse">
<stop stop-color="white" stop-opacity="0.604"/>
<stop offset="1" stop-color="white" stop-opacity="0.2"/>
</linearGradient>
</defs>
</svg>
