<svg width="100" height="80" viewBox="0 0 171 239" fill="none" xmlns="http://www.w3.org/2000/svg">
<path d="M90.169 4.20468e-05C97.362 0.080042 170.338 114.02 170.338 158.3C170.338 168.828 168.264 179.253 164.235 188.979C160.206 198.706 154.3 207.543 146.856 214.987C131.821 230.022 111.429 238.468 90.167 238.467C68.9049 238.467 48.5138 230.02 33.4795 214.985C18.4453 199.95 9.99947 179.558 10 158.296C10 114.02 82.976 -0.079958 90.169 4.20468e-05Z" fill="#42A0F0"/>
<g filter="url(#filter0_f_7_10597)">
<path d="M29.0438 188.263C37.0543 190.712 47.2351 180.638 51.7833 165.761C56.3315 150.885 53.5248 136.84 45.5143 134.39C37.5038 131.941 27.323 142.016 22.7748 156.892C18.2266 171.769 21.0333 185.814 29.0438 188.263Z" fill="white"/>
</g>
<defs>
<filter id="filter0_f_7_10597" x="0.597046" y="114.024" width="73.364" height="94.606" filterUnits="userSpaceOnUse" color-interpolation-filters="sRGB">
<feFlood flood-opacity="0" result="BackgroundImageFix"/>
<feBlend mode="normal" in="SourceGraphic" in2="BackgroundImageFix" result="shape"/>
<feGaussianBlur stdDeviation="10" result="effect1_foregroundBlur_7_10597"/>
</filter>
</defs>
</svg>
