<svg width="120" height="120" viewBox="0 0 474 294" fill="none" xmlns="http://www.w3.org/2000/svg">
<path d="M20 219.919C20 219.919 334.769 221.399 402.92 211.692C471.07 201.986 470.983 151.61 402.92 139.192C334.857 126.774 311.595 171.161 311.595 171.161" stroke="#D0D0D0" stroke-width="20" stroke-linecap="round"/>
<path d="M10 249.793C10 249.793 271.754 241.258 387.149 249.793C502.543 258.328 465.799 282.812 411.111 283.932C356.422 285.051 305.957 272.082 305.957 272.082" stroke="#D0D0D0" stroke-width="20" stroke-linecap="round"/>
<path d="M239.216 178.862C239.216 178.862 237 112.663 237 76.5C237 40.337 237 10 237 10" stroke="#D0D0D0" stroke-width="20" stroke-linecap="round"/>
<path d="M182 130C182 130 240 224.163 240 188L295 130" stroke="#D0D0D0" stroke-width="20" stroke-linecap="round"/>
<path d="M102.216 178.862C102.216 178.862 100 112.663 100 76.5C100 40.337 100 10 100 10" stroke="#D0D0D0" stroke-width="20" stroke-linecap="round"/>
<path d="M45 130C45 130 103 224.163 103 188L158 130" stroke="#D0D0D0" stroke-width="20" stroke-linecap="round"/>
</svg>
