<svg width="50" height="50" viewBox="0 0 360 360" fill="none" xmlns="http://www.w3.org/2000/svg">
<g filter="url(#filter0_d_7_2167)">
<g filter="url(#filter1_f_7_2167)">
<path d="M279.474 141.235C258.296 86.0661 196.405 58.5102 141.236 79.6878C86.0661 100.865 58.5103 162.757 79.6878 217.926C100.865 273.096 162.757 300.652 217.926 279.474C273.096 258.296 300.652 196.405 279.474 141.235Z" fill="#FA9E42"/>
</g>
<g filter="url(#filter2_f_7_2167)">
<path d="M304.68 131.559C278.159 62.4686 200.65 27.9594 131.559 54.4808C62.4684 81.0022 27.9592 158.511 54.4806 227.602C81.0021 296.693 158.511 331.202 227.602 304.68C296.692 278.159 331.202 200.65 304.68 131.559Z" stroke="#FA9E42" stroke-width="10" stroke-linecap="round" stroke-dasharray="1 240"/>
</g>
<g filter="url(#filter3_f_7_2167)">
<path d="M196.73 175.357C221.684 141.002 226.067 101.641 206.52 87.4431C186.972 73.2449 150.897 89.5853 125.943 123.94C100.989 158.296 96.6059 197.656 116.153 211.854C135.7 226.052 171.776 209.712 196.73 175.357Z" fill="#F8E36F"/>
</g>
</g>
<g filter="url(#filter4_f_7_2167)">
<path d="M140.856 286.353C133.732 284.177 126.848 281.283 120.31 277.715C107.689 270.813 96.5607 261.479 87.566 250.253C69.4614 227.688 60.8862 198.945 63.668 170.149C65.1311 155.17 69.5751 140.634 76.7385 127.397C90.5427 101.975 113.722 82.9436 141.345 74.3515C155.611 69.9372 170.629 68.4858 185.477 70.0866C200.325 71.6874 214.689 76.3065 227.687 83.6602C216.802 82.7873 205.847 83.7804 195.297 86.5966C171.985 92.7951 151.834 107.485 138.799 127.782C125.765 148.078 120.79 172.515 124.851 196.292C128.912 220.069 141.716 241.469 160.749 256.288C179.781 271.108 203.666 278.276 227.714 276.385C221.34 280.062 214.616 283.096 207.642 285.443C186.023 292.733 162.661 293.052 140.851 286.355L140.856 286.353Z" fill="#713FFD"/>
</g>
<g filter="url(#filter5_f_7_2167)">
<path d="M59.3714 268.442L65.1759 273.853L73.9524 272.902L67.3737 278.788L67.5114 286.722L61.7069 281.312L52.9304 282.263L59.5091 276.376L59.3714 268.442Z" fill="url(#paint0_linear_7_2167)"/>
</g>
<g filter="url(#filter6_f_7_2167)">
<path d="M57.5054 214.62L59.2703 224.841L69.4 230.984L57.572 231.652L51.2154 239.848L49.4506 229.628L39.3208 223.484L51.1489 222.816L57.5054 214.62Z" fill="url(#paint1_linear_7_2167)"/>
</g>
<g filter="url(#filter7_f_7_2167)">
<path d="M63.2357 59.8088L67.957 64.1026L75.1747 63.2543L69.7153 68.0511L69.7477 74.4328L65.0264 70.139L57.8087 70.9873L63.2682 66.1905L63.2357 59.8088Z" fill="url(#paint2_linear_7_2167)"/>
</g>
<g filter="url(#filter8_f_7_2167)">
<path d="M42.3671 153.219L43.9232 157.786L49.1989 159.97L43.5845 161.008L41.1128 165.153L39.5567 160.585L34.281 158.402L39.8954 157.363L42.3671 153.219Z" fill="url(#paint3_linear_7_2167)"/>
</g>
<defs>
<filter id="filter0_d_7_2167" x="29.3223" y="21.3228" width="320.516" height="320.516" filterUnits="userSpaceOnUse" color-interpolation-filters="sRGB">
<feFlood flood-opacity="0" result="BackgroundImageFix"/>
<feColorMatrix in="SourceAlpha" type="matrix" values="0 0 0 0 0 0 0 0 0 0 0 0 0 0 0 0 0 0 127 0" result="hardAlpha"/>
<feOffset dx="10" dy="2"/>
<feGaussianBlur stdDeviation="15"/>
<feColorMatrix type="matrix" values="0 0 0 0 0 0 0 0 0 0 0 0 0 0 0 0 0 0 0.25 0"/>
<feBlend mode="normal" in2="BackgroundImageFix" result="effect1_dropShadow_7_2167"/>
<feBlend mode="normal" in="SourceGraphic" in2="effect1_dropShadow_7_2167" result="shape"/>
</filter>
<filter id="filter1_f_7_2167" x="68.5518" y="68.5522" width="222.058" height="222.058" filterUnits="userSpaceOnUse" color-interpolation-filters="sRGB">
<feFlood flood-opacity="0" result="BackgroundImageFix"/>
<feBlend mode="normal" in="SourceGraphic" in2="BackgroundImageFix" result="shape"/>
<feGaussianBlur stdDeviation="2" result="effect1_foregroundBlur_7_2167"/>
</filter>
<filter id="filter2_f_7_2167" x="47.3223" y="47.3228" width="264.516" height="264.516" filterUnits="userSpaceOnUse" color-interpolation-filters="sRGB">
<feFlood flood-opacity="0" result="BackgroundImageFix"/>
<feBlend mode="normal" in="SourceGraphic" in2="BackgroundImageFix" result="shape"/>
<feGaussianBlur stdDeviation="1" result="effect1_foregroundBlur_7_2167"/>
</filter>
<filter id="filter3_f_7_2167" x="83.9385" y="62.3223" width="154.796" height="174.652" filterUnits="userSpaceOnUse" color-interpolation-filters="sRGB">
<feFlood flood-opacity="0" result="BackgroundImageFix"/>
<feBlend mode="normal" in="SourceGraphic" in2="BackgroundImageFix" result="shape"/>
<feGaussianBlur stdDeviation="10" result="effect1_foregroundBlur_7_2167"/>
</filter>
<filter id="filter4_f_7_2167" x="59.1533" y="65.4551" width="172.561" height="229.699" filterUnits="userSpaceOnUse" color-interpolation-filters="sRGB">
<feFlood flood-opacity="0" result="BackgroundImageFix"/>
<feBlend mode="normal" in="SourceGraphic" in2="BackgroundImageFix" result="shape"/>
<feGaussianBlur stdDeviation="2" result="effect1_foregroundBlur_7_2167"/>
</filter>
<filter id="filter5_f_7_2167" x="50.9307" y="266.442" width="25.0215" height="22.2803" filterUnits="userSpaceOnUse" color-interpolation-filters="sRGB">
<feFlood flood-opacity="0" result="BackgroundImageFix"/>
<feBlend mode="normal" in="SourceGraphic" in2="BackgroundImageFix" result="shape"/>
<feGaussianBlur stdDeviation="1" result="effect1_foregroundBlur_7_2167"/>
</filter>
<filter id="filter6_f_7_2167" x="37.3213" y="212.621" width="34.0791" height="29.2275" filterUnits="userSpaceOnUse" color-interpolation-filters="sRGB">
<feFlood flood-opacity="0" result="BackgroundImageFix"/>
<feBlend mode="normal" in="SourceGraphic" in2="BackgroundImageFix" result="shape"/>
<feGaussianBlur stdDeviation="1" result="effect1_foregroundBlur_7_2167"/>
</filter>
<filter id="filter7_f_7_2167" x="55.8086" y="57.8086" width="21.3662" height="18.624" filterUnits="userSpaceOnUse" color-interpolation-filters="sRGB">
<feFlood flood-opacity="0" result="BackgroundImageFix"/>
<feBlend mode="normal" in="SourceGraphic" in2="BackgroundImageFix" result="shape"/>
<feGaussianBlur stdDeviation="1" result="effect1_foregroundBlur_7_2167"/>
</filter>
<filter id="filter8_f_7_2167" x="32.2812" y="151.219" width="18.918" height="15.9341" filterUnits="userSpaceOnUse" color-interpolation-filters="sRGB">
<feFlood flood-opacity="0" result="BackgroundImageFix"/>
<feBlend mode="normal" in="SourceGraphic" in2="BackgroundImageFix" result="shape"/>
<feGaussianBlur stdDeviation="1" result="effect1_foregroundBlur_7_2167"/>
</filter>
<linearGradient id="paint0_linear_7_2167" x1="59.3714" y1="268.442" x2="67.5114" y2="286.722" gradientUnits="userSpaceOnUse">
<stop stop-color="#6B38FC"/>
<stop offset="1" stop-color="#9F7EFD"/>
</linearGradient>
<linearGradient id="paint1_linear_7_2167" x1="57.5054" y1="214.62" x2="51.2154" y2="239.848" gradientUnits="userSpaceOnUse">
<stop stop-color="#6B38FC"/>
<stop offset="1" stop-color="#9F7EFD"/>
</linearGradient>
<linearGradient id="paint2_linear_7_2167" x1="63.2357" y1="59.8088" x2="69.7477" y2="74.4328" gradientUnits="userSpaceOnUse">
<stop stop-color="#6B38FC"/>
<stop offset="1" stop-color="#9F7EFD"/>
</linearGradient>
<linearGradient id="paint3_linear_7_2167" x1="42.3671" y1="153.219" x2="41.1128" y2="165.153" gradientUnits="userSpaceOnUse">
<stop stop-color="#6B38FC"/>
<stop offset="1" stop-color="#9F7EFD"/>
</linearGradient>
</defs>
</svg>
